<svg width="512" height="512" xmlns="http://www.w3.org/2000/svg">

  <g>
    <title>background</title>
    <rect fill="none" id="canvas_background" height="402" width="582" y="-1" x="-1"/>
  </g>
  <g>
    <title>Layer 1</title>
    <path stroke="null" id="svg_2" d="m499.99437,0.41247l-145.95847,0c-48.40957,0 -82.01758,43.46131 -97.87803,69.65553c-15.86045,-26.19422 -49.46846,-69.65553 -97.87803,-69.65553l-145.95847,0c-6.70542,0 -12.14016,7.53402 -12.14016,16.82953l0,231.06748c0,9.2955 5.43474,16.82952 12.14016,16.82952s12.14016,-7.53402 12.14016,-16.82952l0,-214.23796l133.81831,0c46.95679,0 78.12329,54.43977 85.73787,69.26471l0,342.39477c-23.94445,-27.11236 -63.56589,-45.98012 -118.44887,-56.3041c-41.92267,-7.88557 -81.55221,-8.67842 -101.10731,-8.47086l0,-52.85966c0,-9.29551 -5.43475,-16.82953 -12.14016,-16.82953s-12.14016,7.53402 -12.14016,16.82953l0,70.01268l0,97.89173c0,9.29551 5.43474,16.82952 12.14016,16.82952l243.81087,0c0.00674,0 0.01214,0.00187 0.01754,0.00187c0.00269,0 0.00539,0 0.00809,0s0.0054,0 0.00809,0c0.0054,0 0.01079,-0.00187 0.01754,-0.00187l243.81087,0c6.70542,0 12.14016,-7.53401 12.14016,-16.82952l0,-97.89173l0,-380.86706c0,-9.29364 -5.43609,-16.82953 -12.14016,-16.82953zm-145.95847,33.65905l133.81831,0l0,346.89761c-1.52426,-0.01496 -3.17263,-0.02431 -4.9343,-0.02431c-26.54919,0 -78.30135,2.01767 -126.6084,15.52243c-39.31794,10.99155 -68.74165,27.49944 -88.01213,49.3105l0,-342.47144c7.57681,-14.86982 38.52343,-69.23479 85.73652,-69.23479zm-329.57437,380.56601c18.76329,-0.18139 57.60372,0.5722 97.84161,8.14174c54.88702,10.32585 93.52916,29.97525 112.00648,56.39013l-209.84809,0l0,-64.53187zm253.37058,64.53374c32.4466,-47.13576 123.4007,-64.56553 205.08645,-64.56553c1.77111,0 3.41273,0.00935 4.9343,0.02618l0,64.54122l-210.02075,0l0,-0.00187z"/>
    <path stroke="null" id="svg_6" d="m78.73851,190.163787l106.910561,0c8.349606,0 15.116969,-4.029 15.116969,-9s-6.767363,-9 -15.116969,-9l-106.910561,0c-8.349606,0 -15.116969,4.029 -15.116969,9s6.769043,9 15.116969,9z"/>
    <path stroke="null" id="svg_9" d="m79.030908,246.011743l106.91056,0c8.34961,0 15.11697,-4.029 15.11697,-9s-6.76736,-9 -15.11697,-9l-106.91056,0c-8.34961,0 -15.11697,4.029 -15.11697,9s6.76904,9 15.11697,9z"/>
    <path stroke="null" id="svg_10" d="m78.153717,306.83045l106.91056,0c8.34961,0 15.11697,-4.029 15.11697,-9s-6.76736,-9 -15.11697,-9l-106.91056,0c-8.34961,0 -15.11697,4.029 -15.11697,9s6.76904,9 15.11697,9z"/>
    <path stroke="null" id="svg_12" d="m79.03091,246.01174l106.91056,0c8.34961,0 15.11697,-4.029 15.11697,-9s-6.76736,-9 -15.11697,-9l-106.91056,0c-8.34961,0 -15.11697,4.029 -15.11697,9s6.76904,9 15.11697,9z"/>
    <path stroke="null" id="svg_13" d="m78.15372,306.83045l106.91056,0c8.34961,0 15.11697,-4.029 15.11697,-9s-6.76736,-9 -15.11697,-9l-106.91056,0c-8.34961,0 -15.11697,4.029 -15.11697,9s6.76904,9 15.11697,9z"/>
    <path stroke="null" id="svg_14" d="m327.66452,190.16379l106.91056,0c8.34961,0 15.11697,-4.029 15.11697,-9s-6.76736,-9 -15.11697,-9l-106.91056,0c-8.34961,0 -15.11697,4.029 -15.11697,9s6.76904,9 15.11697,9z"/>
    <path stroke="null" id="svg_15" d="m327.95692,246.01174l106.91056,0c8.34961,0 15.11697,-4.029 15.11697,-9s-6.76736,-9 -15.11697,-9l-106.91056,0c-8.34961,0 -15.11697,4.029 -15.11697,9s6.76904,9 15.11697,9z"/>
    <path stroke="null" id="svg_16" d="m327.07973,306.83045l106.91056,0c8.34961,0 15.11697,-4.029 15.11697,-9s-6.76736,-9 -15.11697,-9l-106.91056,0c-8.34961,0 -15.11697,4.029 -15.11697,9s6.76904,9 15.11697,9z"/>
  </g>
</svg>